<svg xmlns="http://www.w3.org/2000/svg" viewBox="0 0 512 512">
	<defs/>
	<path fill="#4dbbeb" d="M493.21 450.79c11.72 11.71 11.72 30.71 0 42.42-5.86 5.86-13.53 8.79-21.21 8.79s-15.35-2.93-21.21-8.79l-96.57-96.57c15.77-12.4 30.02-26.65 42.42-42.42l96.57 96.57z"/>
	<path fill="#fff5cd" d="M353.83 311.41l42.81 42.81c-12.4 15.77-26.65 30.02-42.42 42.42l-42.81-42.81v-.01c16.27-11.81 30.6-26.14 42.41-42.41h.01z"/>
	<path fill="#4dbbeb" d="M390 200c0 41.58-13.43 80.09-36.18 111.41-11.81 16.27-26.14 30.6-42.41 42.41C280.09 376.57 241.58 390 200 390 95.23 390 10 304.77 10 200S95.23 10 200 10s190 85.23 190 190z"/>
	<path fill="#bee7f4" d="M200 50c82.71 0 150 67.29 150 150s-67.29 150-150 150S50 282.71 50 200 117.29 50 200 50z"/>
	<path d="M500.281 443.719l-133.48-133.48C388.546 277.485 400 239.555 400 200 400 89.72 310.28 0 200 0S0 89.72 0 200s89.72 200 200 200c39.556 0 77.486-11.455 110.239-33.198l36.895 36.895.016.016 96.568 96.568C451.276 507.838 461.319 512 472 512s20.724-4.162 28.278-11.716C507.837 492.731 512 482.687 512 472s-4.163-20.731-11.719-28.281zm-173.765-88.926a200.6744 200.6744 0 0028.277-28.277l28.371 28.371a242.7331 242.7331 0 01-28.277 28.277l-28.371-28.371zM20 200c0-99.252 80.748-180 180-180s180 80.748 180 180c0 38.175-11.851 74.667-34.272 105.535-11.217 15.453-24.739 28.976-40.192 40.192 0 .001-.001.001-.002.002C274.667 368.149 238.175 380 200 380c-99.252 0-180-80.748-180-180zm466.139 286.139c-3.78 3.78-8.801 5.861-14.139 5.861s-10.359-2.081-14.139-5.861l-88.795-88.795a262.7754 262.7754 0 0028.277-28.277l88.798 88.798C489.919 461.639 492 466.658 492 472s-2.081 10.361-5.861 14.139z"/>
	<path d="M360 200c0-88.225-71.775-160-160-160S40 111.775 40 200s71.775 160 160 160 160-71.775 160-160zM200 340c-77.196 0-140-62.804-140-140S122.804 60 200 60s140 62.804 140 140-62.804 140-140 140z"/>
	<path d="M306.317 169.995c5.155-1.981 7.729-7.766 5.748-12.922-8.611-22.412-23.604-41.574-43.36-55.413C248.479 87.49 224.721 80 200 80c-5.522 0-10 4.478-10 10s4.478 10 10 10c41.099 0 78.631 25.818 93.396 64.247 1.528 3.976 5.317 6.416 9.337 6.416 1.192 0 2.405-.215 3.584-.668zM310 190c-5.52 0-10 4.48-10 10s4.48 10 10 10 10-4.48 10-10-4.48-10-10-10z"/>
</svg>